<svg version="1.1" xmlns="http://www.w3.org/2000/svg" viewBox="-1712.0976188036948 -1049.6000244140625 5364.910388884261 2340.864099121094"><desc>Created with Snap</desc><defs></defs><g><g transform="matrix(23.1681,0,0,23.1681,-1977.59,-1037.5848)"><g><path d="M62.586,23.928c3.205-0.002,2.963-4.15-0.008-4.411c-1.441-0.126-4.693-0.412-5.822-0.511   c-1.117-0.098-1.947-1.033-1.949-1.938c-0.002-2.844-0.74-4.329-3.428-4.327l-2.93,0.002c-2.689,0.002-3.424,1.487-3.422,4.333   c0,0.905-0.83,1.84-1.945,1.939c-1.129,0.103-4.381,0.393-5.818,0.521c-2.975,0.265-3.213,4.413-0.004,4.411L62.586,23.928z    M49.979,17.819c-0.916-0.001-1.656-0.739-1.66-1.656c-0.002-0.917,0.74-1.66,1.658-1.661c0.918,0,1.658,0.742,1.662,1.657   C51.641,17.074,50.896,17.818,49.979,17.819z" fill="#4a274f" style=""></path></g><path d="M66.408,22.092c-0.072,0.706-0.322,1.582-0.797,2.093c-0.43,0.468-1.221,1.023-2.521,1.027l-26.211,0.015  c-1.303,0-2.092-0.561-2.523-1.027c-0.479-0.511-0.727-1.385-0.807-2.088h-8.83l0.033,65.148l50.529-0.03l-0.033-65.143  L66.408,22.092z M31.52,82.179l-3.039,0.002l-0.002-3.057l3.035-0.002L31.52,82.179z M31.51,75.427l-3.033-0.001l-0.002-3.058  l3.033,0.001L31.51,75.427z M31.506,68.675l-3.033-0.001l-0.004-3.057l3.035-0.002L31.506,68.675z M31.504,61.923l-3.037,0.002  l0.002-3.059l3.033-0.002L31.504,61.923z M31.5,55.174l-3.033-0.001v-3.058l3.035-0.003L31.5,55.174z M31.496,48.419l-3.033,0.002  v-3.062h3.031L31.496,48.419z M42.705,32.463l4.822-0.003l-0.002-4.817l4.926-0.004l0.002,4.82l4.82-0.001l0.006,4.927l-4.82,0.002  v4.82l-4.93,0.004v-4.824l-4.822,0.007l-0.004-4.93L42.705,32.463L42.705,32.463z M69.943,82.155l-35.775,0.017l-0.006-3.058  l35.783-0.018L69.943,82.155z M69.945,75.405l-35.783,0.018l-0.002-3.058l35.775-0.018L69.945,75.405z M69.938,68.655L34.16,68.672  l-0.004-3.062l35.777-0.014L69.938,68.655z M69.932,61.903l-35.777,0.015v-3.059l35.777-0.02V61.903z M69.932,55.152l-35.777,0.02  l-0.002-3.062l35.775-0.017L69.932,55.152z M69.926,48.401l-35.773,0.012l-0.002-3.057l35.773-0.017L69.926,48.401z" fill="#4a274f" style=""></path><desc>Created with Snap</desc><defs></defs></g><g><g transform="matrix(1.024,0,0,-1.024,0,0)"><path d="M164 519Q164 482 182 453Q201 425 228 404Q256 383 303 354Q354 322 383 299Q413 276 433 242Q454 209 454 164Q454 113 427 73Q401 33 352 10Q304 -12 242 -12Q200 -12 155 -1Q111 10 88 26Q79 32 78 45L72 197L72 198Q72 202 77 202Q82 203 83 199Q116 116 158 63Q201 10 267 10Q310 10 339 33Q368 57 368 112Q368 156 348 189Q329 222 300 244Q272 266 223 298Q175 329 148 350Q121 372 102 403Q83 435 83 477Q83 529 112 565Q141 601 187 618Q234 636 285 636Q319 636 353 629Q387 623 410 613Q419 610 422 605Q425 601 425 594L428 458Q428 455 422 453Q417 452 416 456Q396 517 362 566Q329 616 262 616Q217 616 190 590Q164 564 164 519ZM923 54L925 54Q929 54 930 49Q931 45 927 43L824 -6Q820 -8 815 -8Q801 -8 788 8Q775 24 770 51L718 23Q660 -7 619 -7Q587 -7 569 9Q552 26 552 55Q552 86 574 101Q596 117 658 138L767 175L767 255Q767 316 753 344Q739 373 711 373Q657 373 649 294Q644 244 598 244Q555 244 555 281Q555 307 587 333Q620 360 666 377Q712 395 748 395Q793 395 820 367Q848 340 848 285L848 108Q848 77 858 61Q868 45 887 45Q902 45 923 54ZM738 51L768 67Q767 71 767 82L767 159L696 133Q670 123 659 111Q648 100 648 83Q648 62 660 50Q672 38 691 38Q712 38 738 51ZM964 0Q961 0 961 6Q961 12 964 12Q997 12 1009 26Q1021 41 1021 81L1021 592Q1021 627 1014 642Q1008 658 991 658Q976 658 951 646L950 646Q946 646 944 651Q942 656 944 658L1085 724L1089 725Q1093 725 1098 721Q1104 717 1104 714L1104 81Q1104 40 1115 26Q1126 12 1160 12Q1163 12 1163 6Q1163 0 1160 0Q1136 0 1121 1L1062 2L1004 1Q989 0 964 0ZM1685 62L1687 63Q1690 63 1692 58Q1694 53 1691 51L1560 -12L1556 -13Q1546 -13 1538 9Q1530 32 1529 70Q1459 -11 1381 -11Q1327 -11 1297 22Q1267 56 1267 114L1267 263Q1267 331 1236 331Q1226 331 1208 323L1207 323Q1203 323 1201 328Q1199 333 1202 335L1329 394L1333 395Q1337 395 1342 391Q1347 387 1347 384L1347 157Q1347 46 1431 46Q1456 46 1482 58Q1508 70 1529 91L1529 263Q1529 298 1521 314Q1514 331 1498 331Q1489 331 1470 323L1469 323Q1465 323 1463 328Q1461 334 1465 335L1591 394Q1593 395 1596 395Q1600 395 1605 391Q1610 387 1610 384L1610 113Q1610 78 1617 64Q1624 50 1640 50Q1652 50 1685 62ZM2196 62L2197 62Q2200 62 2202 57Q2205 52 2202 51L2074 -11L2068 -12Q2058 -12 2049 8Q2041 28 2040 62Q2004 28 1966 7Q1928 -13 1883 -13Q1840 -13 1804 10Q1768 34 1747 78Q1726 122 1726 181Q1726 255 1761 304Q1796 353 1849 376Q1902 399 1955 399Q1999 399 2039 383L2039 592Q2039 627 2032 642Q2026 658 2009 658Q1998 658 1969 646L1967 646Q1963 646 1961 651Q1959 656 1961 657L2102 724L2106 725Q2110 725 2115 721Q2120 717 2120 714L2120 114Q2120 79 2127 64Q2134 50 2151 50Q2171 50 2196 62ZM1933 31Q1962 31 1987 44Q2013 57 2039 81L2039 82L2039 320Q2019 348 1994 361Q1970 375 1936 375Q1879 375 1848 335Q1817 296 1817 212Q1817 128 1849 79Q1882 31 1933 31Z" fill="#4a274f" style=""></path></g></g><g transform="matrix(1,0,0,1,23.552,971.776)"><g transform="matrix(1.024,0,0,-1.024,0,0)"><path d="M419 636Q464 636 512 628Q561 620 589 606Q598 603 600 598Q603 594 604 583L616 453Q616 450 611 449Q606 448 605 452Q576 530 517 571Q459 612 380 612Q276 612 217 539Q158 466 158 343Q158 251 190 174Q223 97 280 52Q338 7 409 7Q544 7 614 175Q615 179 620 178Q626 177 626 174L611 46Q609 34 606 30Q604 27 595 23Q508 -12 410 -12Q288 -12 207 36Q126 85 87 160Q49 235 49 316Q49 410 100 483Q152 556 237 596Q322 636 419 636ZM1047 62L1049 63Q1051 63 1053 59Q1056 55 1054 53Q1018 19 981 3Q944 -12 900 -12Q838 -12 793 14Q749 41 725 85Q702 130 702 181Q702 240 731 289Q761 338 812 366Q864 395 926 395Q985 395 1017 368Q1049 342 1049 296Q1049 269 1038 269L983 269L795 267Q792 246 792 222Q792 135 832 83Q873 32 945 32Q971 32 998 39Q1025 47 1047 62ZM890 375Q857 375 833 351Q809 327 799 285L955 288Q953 329 937 352Q921 375 890 375ZM1375 396Q1398 396 1419 381Q1440 366 1440 345Q1440 326 1428 314Q1417 302 1397 302Q1384 302 1375 307Q1367 313 1358 323Q1349 332 1342 336Q1335 341 1325 341Q1314 341 1301 332Q1289 324 1263 297L1263 81Q1263 53 1271 38Q1279 24 1298 18Q1317 12 1354 12Q1358 12 1358 6Q1358 0 1354 0Q1321 0 1301 1L1222 2L1164 1Q1150 0 1125 0Q1122 0 1122 6Q1122 12 1125 12Q1159 12 1170 26Q1181 40 1181 81L1181 272Q1181 304 1173 319Q1166 334 1149 334Q1134 334 1099 319L1098 319Q1094 319 1092 324Q1090 329 1093 330L1224 394Q1230 396 1231 396Q1241 396 1251 374Q1261 353 1263 318Q1302 362 1328 379Q1354 396 1375 396ZM1691 -12Q1626 -12 1580 16Q1535 45 1513 90Q1491 136 1491 186Q1491 249 1525 296Q1559 344 1612 369Q1666 395 1721 395Q1768 395 1806 376Q1844 357 1844 325Q1844 308 1831 295Q1818 283 1795 283Q1757 283 1740 328Q1730 353 1719 363Q1708 374 1684 374Q1637 374 1609 331Q1582 289 1582 218Q1582 135 1620 83Q1659 32 1741 32Q1769 32 1791 39Q1813 46 1839 61L1840 61Q1843 61 1845 58Q1848 55 1846 53Q1809 20 1773 4Q1737 -12 1691 -12ZM2294 54L2296 54Q2300 54 2301 49Q2302 45 2298 43L2195 -6Q2191 -8 2186 -8Q2172 -8 2159 8Q2146 24 2141 51L2089 23Q2031 -7 1990 -7Q1958 -7 1940 9Q1923 26 1923 55Q1923 86 1945 101Q1967 117 2029 138L2138 175L2138 255Q2138 316 2124 344Q2110 373 2082 373Q2028 373 2020 294Q2015 244 1969 244Q1926 244 1926 281Q1926 307 1958 333Q1991 360 2037 377Q2083 395 2119 395Q2164 395 2191 367Q2219 340 2219 285L2219 108Q2219 77 2229 61Q2239 45 2258 45Q2273 45 2294 54ZM2109 51L2139 67Q2138 71 2138 82L2138 159L2067 133Q2041 123 2030 111Q2019 100 2019 83Q2019 62 2031 50Q2043 38 2062 38Q2083 38 2109 51ZM2802 12Q2805 12 2805 6Q2805 0 2802 0Q2777 0 2763 1L2705 2L2648 1Q2633 0 2608 0Q2605 0 2605 6Q2605 12 2608 12Q2642 12 2653 26Q2664 40 2664 81L2664 231Q2664 287 2643 313Q2623 340 2579 340Q2553 340 2526 328Q2499 316 2477 296L2477 81Q2477 40 2488 26Q2499 12 2533 12Q2536 12 2536 6Q2536 0 2533 0Q2508 0 2494 1L2436 2L2378 1Q2364 0 2339 0Q2336 0 2336 6Q2336 12 2339 12Q2373 12 2384 26Q2395 40 2395 81L2395 272Q2395 304 2387 319Q2380 334 2363 334Q2348 334 2313 319L2312 319Q2308 319 2306 324Q2304 329 2307 330L2438 394Q2444 396 2445 396Q2455 396 2465 373Q2476 351 2477 315Q2547 398 2629 398Q2684 398 2715 364Q2746 331 2746 274L2746 81Q2746 40 2757 26Q2768 12 2802 12ZM3237 54L3239 54Q3243 54 3244 49Q3245 45 3241 43L3138 -6Q3134 -8 3129 -8Q3115 -8 3102 8Q3089 24 3084 51L3032 23Q2974 -7 2933 -7Q2901 -7 2883 9Q2866 26 2866 55Q2866 86 2888 101Q2910 117 2972 138L3081 175L3081 255Q3081 316 3067 344Q3053 373 3025 373Q2971 373 2963 294Q2958 244 2912 244Q2869 244 2869 281Q2869 307 2901 333Q2934 360 2980 377Q3026 395 3062 395Q3107 395 3134 367Q3162 340 3162 285L3162 108Q3162 77 3172 61Q3182 45 3201 45Q3216 45 3237 54ZM3052 51L3082 67Q3081 71 3081 82L3081 159L3010 133Q2984 123 2973 111Q2962 100 2962 83Q2962 62 2974 50Q2986 38 3005 38Q3026 38 3052 51Z" fill="#4a274f" style=""></path></g></g></g></svg>